<svg id="Capa_1" enable-background="new 0 0 501.052 501.052" height="512" viewBox="0 0 501.052 501.052" width="512" xmlns="http://www.w3.org/2000/svg"><g><path d="m454.881 353.684h-45.917c-4.118-7.705-6.996-9.684-28.923-31.612-5.747-5.747-5.747-15.097 0-20.845l21.191-21.191c17.239-17.238 17.239-45.288 0-62.526l-21.192-21.19c-5.747-5.747-5.747-15.097 0-20.844 22.548-22.548 26.708-25.404 30.951-35.963h43.89c8.139 0 14.737-6.598 14.737-14.737s-6.598-14.737-14.737-14.737h-297.275l301.106-81.067c7.86-2.116 12.514-10.203 10.399-18.061-2.116-7.859-10.198-12.516-18.061-10.399-434.787 117.058-411.842 109.183-416.552 115.31-7.577 9.926-.159 23.837 11.795 23.69h68.664l-15.124 15.124c-17.239 17.238-17.239 45.288 0 62.526l21.191 21.191c5.747 5.747 5.747 15.097 0 20.845l-21.191 21.191c-17.239 17.238-17.239 45.288 0 62.526l10.772 10.772h-64.421c-8.139 0-14.737 6.598-14.737 14.737 0 73.132 59.498 132.63 132.63 132.63h172.91c73.132 0 132.63-59.498 132.63-132.63 0-8.141-6.598-14.74-14.736-14.74zm-95.683-136.524 21.191 21.191c5.747 5.747 5.747 15.097 0 20.845l-21.191 21.191c-17.239 17.238-17.239 45.288 0 62.526l10.772 10.771h-47.463c-4.118-7.705-6.996-9.684-28.923-31.612-5.747-5.747-5.747-15.097 0-20.845l21.191-21.191c17.239-17.238 17.239-45.288 0-62.526l-21.191-21.191c-5.747-5.747-5.747-15.097 0-20.844 22.548-22.548 26.708-25.404 30.951-35.963h49.786l-15.124 15.124c-17.237 17.238-17.237 45.287.001 62.524zm-123.145 136.524c-4.118-7.705-6.996-9.684-28.923-31.612-5.747-5.747-5.747-15.097 0-20.845l21.191-21.191c17.239-17.238 17.239-45.288 0-62.526l-21.191-21.19c-5.747-5.747-5.747-15.097 0-20.844 22.548-22.548 26.708-25.404 30.951-35.963h49.786l-15.124 15.124c-17.239 17.238-17.239 45.288 0 62.526l21.191 21.191c5.747 5.747 5.747 15.097 0 20.845l-21.191 21.191c-17.239 17.238-17.239 45.288 0 62.526l10.771 10.772zm-115.379-31.611c-5.747-5.747-5.747-15.097 0-20.845l21.191-21.191c17.239-17.238 17.239-45.288 0-62.526l-21.191-21.191c-5.747-5.747-5.747-15.097 0-20.844 22.548-22.548 26.708-25.404 30.951-35.963h49.786l-15.124 15.124c-17.239 17.238-17.239 45.288 0 62.526l21.191 21.191c5.747 5.747 5.747 15.097 0 20.845l-21.191 21.191c-17.239 17.238-17.239 45.288 0 62.526l10.772 10.771h-47.463c-4.116-7.708-6.994-9.686-28.922-31.614zm216.313 149.505h-172.91c-51.878 0-94.934-38.495-102.107-88.42h377.124c-7.172 49.926-50.229 88.42-102.107 88.42z"/></g></svg>