<?xml version="1.0" encoding="iso-8859-1"?>
<!-- Generator: Adobe Illustrator 19.0.0, SVG Export Plug-In . SVG Version: 6.00 Build 0)  -->
<svg version="1.1" id="Capa_1" xmlns="http://www.w3.org/2000/svg" xmlns:xlink="http://www.w3.org/1999/xlink" x="0px" y="0px"
	 viewBox="0 0 512 512" style="enable-background:new 0 0 512 512;" xml:space="preserve">
<g>
	<g>
		<path d="M437.02,74.98C388.667,26.629,324.38,0,256,0S123.333,26.629,74.98,74.98C26.629,123.333,0,187.62,0,256
			s26.629,132.667,74.98,181.02C123.333,485.371,187.62,512,256,512s132.667-26.629,181.02-74.98
			C485.371,388.667,512,324.38,512,256S485.371,123.333,437.02,74.98z M426.413,426.413C380.894,471.932,320.374,497,256,497
			s-124.894-25.068-170.413-70.587C40.068,380.894,15,320.374,15,256S40.068,131.106,85.587,85.587
			C131.106,40.068,191.626,15,256,15s124.894,25.068,170.413,70.587C471.932,131.106,497,191.626,497,256
			S471.932,380.894,426.413,426.413z"/>
	</g>
</g>
<g>
	<g>
		<path d="M456.812,254.373l-12.884-12.884c-2.301-2.301-5.177-3.672-8.169-4.145c-2.764-16.704-7.959-32.815-15.473-48.021
			c3.985-7.073,1.539-16.082-5.508-20.151l-10.484-6.053c-16.929-22.897-39.152-41.205-64.686-53.395
			c0.597-1.224,1.036-2.534,1.282-3.912c0.698-3.906-0.167-7.85-2.437-11.104L328.034,79.76c-4.684-6.72-13.961-8.375-20.679-3.692
			l-14.948,10.418c-2.739,1.909-4.701,4.624-5.675,7.763c-7.127-0.885-14.338-1.343-21.544-1.343
			c-29.819,0-58.301,8.336-83.087,24.211c-0.614-1.51-1.699-2.805-3.142-3.652c-2.135-1.252-4.75-1.371-6.989-0.316
			c-17.922,8.439-34.087,23.818-45.517,43.305s-16.963,41.103-15.581,60.863c0.173,2.469,1.553,4.694,3.688,5.946
			c1.168,0.685,2.479,1.031,3.795,1.031c1.089,0,2.181-0.237,3.195-0.715c17.922-8.439,34.087-23.818,45.516-43.305
			c8.449-14.406,13.666-29.975,15.258-45.099c5.442-4.026,11.112-7.623,16.979-10.78c-0.309,0.842-0.555,1.719-0.71,2.635
			l-3.042,17.964c-0.415,2.451-0.193,4.862,0.531,7.075c-24.476,17.731-41.153,44.017-46.666,73.72
			c-4.995,1.331-9.162,5.22-10.569,10.567l-4.635,17.621c-2.083,7.921,2.667,16.06,10.587,18.143l5.537,1.456
			c5.738,25.344,19.607,47.865,39.595,64.45c-5.617,4.883-10.634,10.207-14.964,15.843c-30.175-25.561-48.015-62.339-49.238-102.06
			c-0.127-4.14-3.582-7.39-7.728-7.266c-4.14,0.127-7.393,3.587-7.266,7.728c1.374,44.633,21.695,85.9,55.992,114.247
			c-0.908,1.679-1.776,3.371-2.561,5.083c-1.032,2.25-0.887,4.864,0.387,6.986c1.274,2.122,3.513,3.479,5.983,3.627
			c1.696,0.101,3.402,0.151,5.122,0.151c4.155,0,8.374-0.309,12.619-0.888c14.836,8.534,30.812,14.477,47.582,17.696
			c0.203,0.551,0.427,1.096,0.698,1.628l8.25,16.246c1.295,2.55,3.257,4.616,5.66,6.038c-50.976-4.254-97.677-30.438-127.959-72.116
			c2.162-1.486,3.907-3.515,5.042-5.957c1.672-3.598,1.843-7.632,0.481-11.358l-6.253-17.114
			c-2.811-7.691-11.356-11.663-19.05-8.854l-2.868,1.048c-7.268-19.579-10.955-40.175-10.955-61.3
			c0-97.202,79.08-176.282,176.282-176.282c4.142,0,7.5-3.358,7.5-7.5c0-4.142-3.358-7.5-7.5-7.5
			c-105.473,0-191.282,85.809-191.282,191.282c0,22.892,3.995,45.217,11.867,66.448l-0.157,0.057
			c-3.727,1.361-6.7,4.093-8.372,7.691s-1.843,7.631-0.482,11.358l6.253,17.113c1.361,3.727,4.093,6.7,7.69,8.372
			c1.993,0.926,4.119,1.392,6.252,1.392c1.719,0,3.443-0.303,5.106-0.91l6.138-2.243c35.831,51.393,94.289,82.002,156.985,82.002
			c85.758,0,157.976-62.422,170.869-146.349c2.884-0.516,5.646-1.877,7.87-4.101l12.884-12.884
			C462.603,269.587,462.603,260.164,456.812,254.373z M154.128,172.685c-7.491,12.771-17.22,23.458-28.091,31.01
			c1.286-13.173,5.865-26.882,13.355-39.653c7.49-12.77,17.221-23.458,28.09-31.01C166.197,146.207,161.618,159.915,154.128,172.685
			z M97.056,344.814l-6.153-16.839l16.839-6.153l6.152,16.839L97.056,344.814z M391.625,173.126l15.526,8.963l-8.964,15.526
			l-15.526-8.964L391.625,173.126z M315.812,88.458l10.25,14.708l-14.708,10.25l-9.292-13.333c-0.229-0.514-0.519-0.997-0.855-1.447
			L315.812,88.458z M265.189,107.906c8.542,0,17.093,0.69,25.467,2.045l8.476,12.162c2.269,3.255,5.669,5.432,9.575,6.129
			c0.882,0.158,1.765,0.235,2.643,0.235c3.008,0,5.941-0.915,8.461-2.671l7.468-5.205c21.338,9.136,40.367,22.857,55.789,40.159
			c-1.761,1.229-3.255,2.826-4.36,4.74l-8.175,14.16c-24.988-30.499-62.93-49.997-105.344-49.997
			c-6.451,0-12.881,0.536-19.208,1.573c-0.586-6.56-5.508-12.179-12.299-13.329l-14.134-2.393
			C234.062,110.494,249.417,107.906,265.189,107.906z M213.358,129.677l17.676,2.993l-2.993,17.676l-16.531-2.799
			c-0.34-0.242-0.7-0.448-1.071-0.629L213.358,129.677z M207.85,162.141l17.83,3.019c0.839,0.142,1.678,0.212,2.512,0.212
			c3.055,0,6.029-0.943,8.57-2.748c3.234-2.298,5.38-5.718,6.043-9.629l1.034-6.109c6.981-1.473,14.149-2.224,21.349-2.224
			c66.801,0,121.147,54.346,121.147,121.147c0,23.355-6.692,45.954-19.113,65.327v-10.305c0-6.969-4.83-12.816-11.314-14.41
			c5.688-12.711,8.671-26.554,8.671-40.613c0-4.142-3.358-7.5-7.5-7.5c-4.142,0-7.5,3.358-7.5,7.5
			c0,14.073-3.507,27.891-10.159,40.168h-5.272c-8.19,0-14.854,6.664-14.854,14.854v9.719c-15.159,12.68-34.261,19.65-54.106,19.65
			c-4.136,0-8.257-0.255-12.34-0.744c6.71-6.498,12.417-13.643,16.9-21.197c32.414-2.346,58.074-29.449,58.074-62.45
			c0-34.537-28.098-62.634-62.633-62.634c-0.003,0-0.006,0-0.01,0c-1.232,0-2.466,0.058-3.694,0.16l-0.572-1.126
			c-1.796-3.537-4.863-6.164-8.634-7.395s-7.797-0.92-11.334,0.876l-16.246,8.249c-3.538,1.796-6.165,4.863-7.396,8.635
			c-1.231,3.772-0.92,7.797,0.876,11.334l4.948,9.745c-1.453,4.434-2.196,9.057-2.196,13.778c0,24.403,19.854,44.256,44.257,44.256
			c14.269,0,25.877-11.61,25.877-25.878c0-14.269-11.609-25.878-25.878-25.878c-4.142,0-7.5,3.358-7.5,7.5
			c0,4.142,3.358,7.5,7.5,7.5c5.998,0,10.878,4.88,10.878,10.878c0,5.998-4.88,10.878-10.878,10.878
			c-16.009,0-29.049-12.926-29.247-28.889c1.237,0.323,2.494,0.492,3.747,0.492c2.305,0,4.595-0.543,6.71-1.617l16.246-8.249
			c7.302-3.708,10.227-12.667,6.519-19.969l-0.054-0.106c24.437,2.003,43.713,22.516,43.713,47.46
			c0,23.449-17.036,42.981-39.378,46.903c-1.303-1.91-3.412-3.129-5.737-3.268c-6.929-0.414-14.076,0.042-21.271,1.285
			c-27.885-8.245-47.261-34.091-47.261-63.298c0-36.399,29.613-66.013,66.012-66.013c5.137,0,10.265,0.488,15.277,1.403
			c6.714,11.546,15.986,22.312,27.224,31.408c17.561,14.213,38.106,22.914,57.852,24.5c0.201,0.016,0.402,0.024,0.602,0.024
			c2.252,0,4.399-1.015,5.829-2.782c1.557-1.924,2.064-4.492,1.356-6.864c-5.667-18.983-18.459-37.264-36.019-51.476
			c-17.559-14.212-38.104-22.913-57.851-24.499c-2.466-0.197-4.873,0.833-6.43,2.758c-1.557,1.924-2.065,4.492-1.357,6.864
			c0.396,1.327,0.836,2.65,1.301,3.969c-2.588-0.201-5.186-0.305-7.785-0.305c-41.901,0-76.473,31.976-80.598,72.808
			c-1.698-4.201-5.271-7.586-9.979-8.825l-10.294-2.708C169.511,200.949,185.108,177.443,207.85,162.141z M352.223,320.978v17.928
			h-17.928v-17.928H352.223z M255.723,225.117l-15.985,8.116l-8.116-15.985l15.985-8.117L255.723,225.117z M290.663,170.163
			c12.834,3.239,25.704,9.815,37.212,19.129c11.508,9.314,20.622,20.531,26.465,32.409c-12.833-3.24-25.705-9.816-37.213-19.13
			C305.62,193.257,296.505,182.039,290.663,170.163z M148.757,257.648l4.561-17.337l17.338,4.56l-4.561,17.338L148.757,257.648z
			 M166.8,277.218c6.345-0.262,12.067-4.598,13.764-11.052l3.751-14.262c1.512,27.283,16.757,51.693,39.683,65.279
			c-5.779,2.334-11.476,5.151-16.992,8.462c-1.617,0.971-3.194,1.986-4.752,3.02C185.255,315.493,172.937,297.586,166.8,277.218z
			 M184.005,366.91c7.441-10.948,18.028-20.785,30.722-28.405c12.694-7.62,26.354-12.338,39.516-13.758
			c-7.441,10.946-18.03,20.785-30.723,28.405C210.826,360.772,197.166,365.49,184.005,366.91z M243.079,380.83
			c-1.769,0.898-3.31,2.113-4.563,3.576c-9.614-1.858-18.938-4.708-27.892-8.519c7.023-2.567,13.95-5.872,20.616-9.873
			c2.168-1.301,4.275-2.67,6.335-4.085c9.002,2.163,18.278,3.272,27.614,3.272c20.401,0,40.133-6.261,56.699-17.78
			c2.678,3.912,7.174,6.485,12.262,6.485h14.192c-18.133,17.129-41.027,28.234-65.696,31.797l-3.352-6.602
			c-1.796-3.538-4.863-6.165-8.635-7.396c-3.772-1.231-7.797-0.921-11.335,0.876L243.079,380.83z M250,394.138l15.985-8.117
			l8.116,15.985l-15.985,8.117L250,394.138z M265.189,423.713c-0.243,0-0.485-0.01-0.728-0.011c0.104-0.05,0.212-0.085,0.315-0.138
			l16.246-8.249c3.538-1.796,6.165-4.863,7.396-8.634c0.728-2.23,0.903-4.547,0.564-6.801c29.599-5.223,56.692-20.146,77.095-42.649
			c22.737-25.077,35.259-57.544,35.259-91.421c0-19.958-4.317-38.926-12.065-56.02l1.542,0.891c2.333,1.347,4.883,1.987,7.402,1.987
			c5.119,0,10.105-2.647,12.859-7.376c5.015,12.066,8.495,24.681,10.375,37.671l-11.411,11.411c-5.791,5.791-5.792,15.214,0,21.006
			l11.641,11.641C411.212,365.193,344.547,423.713,265.189,423.713z M433.424,277.553l-12.676-12.677l12.59-12.59
			c0.036-0.022,0.071-0.045,0.106-0.068l12.658,12.658L433.424,277.553z"/>
	</g>
</g>
<g>
</g>
<g>
</g>
<g>
</g>
<g>
</g>
<g>
</g>
<g>
</g>
<g>
</g>
<g>
</g>
<g>
</g>
<g>
</g>
<g>
</g>
<g>
</g>
<g>
</g>
<g>
</g>
<g>
</g>
</svg>
