<?xml version="1.0" encoding="iso-8859-1"?>
<!-- Generator: Adobe Illustrator 19.0.0, SVG Export Plug-In . SVG Version: 6.00 Build 0)  -->
<svg version="1.1" id="Capa_1" xmlns="http://www.w3.org/2000/svg" xmlns:xlink="http://www.w3.org/1999/xlink" x="0px" y="0px"
	 viewBox="0 0 511.814 511.814" style="enable-background:new 0 0 511.814 511.814;" xml:space="preserve">
<g>
	<g>
		<path d="M470.062,191.172c-23.691-57.209-68.255-101.765-125.479-125.465c-2.037-0.85-4.379,0.126-5.222,2.163
			c-0.843,2.037,0.125,4.379,2.162,5.222c55.258,22.879,98.284,65.906,121.155,121.14c47.226,114.013-7.111,245.198-121.124,292.424
			c-55.219,22.871-116.058,22.871-171.293,0c-55.227-22.879-98.245-65.896-121.124-121.124
			C1.911,251.519,56.248,120.334,170.26,73.108c2.038-0.843,3.006-3.184,2.163-5.222c-0.844-2.038-3.17-3.014-5.223-2.163
			C49.114,114.636-7.159,250.505,41.753,368.592C65.444,425.794,110,470.342,167.201,494.041
			c28.609,11.849,58.653,17.773,88.714,17.773c30.045-0.008,60.105-5.924,88.698-17.773
			C462.701,445.129,518.973,309.259,470.062,191.172z"/>
	</g>
</g>
<g>
	<g>
		<path d="M455.294,197.292c-22.051-53.252-63.539-94.732-116.807-116.799c-2.037-0.867-4.379,0.132-5.223,2.162
			c-0.843,2.037,0.125,4.379,2.162,5.222c51.3,21.248,91.243,61.19,112.483,112.475c21.247,51.277,21.247,107.76-0.008,159.052
			c-21.24,51.293-61.183,91.244-112.468,112.483c-51.284,21.247-107.768,21.24-159.053-0.008
			c-51.292-21.239-91.235-61.183-112.475-112.468c-21.248-51.284-21.248-107.768,0-159.06
			c21.24-51.285,61.191-91.235,112.475-112.475c2.038-0.843,3.006-3.184,2.163-5.222c-0.843-2.03-3.169-3.021-5.222-2.162
			c-53.26,22.059-94.74,63.539-116.8,116.799c-22.067,53.268-22.067,111.929,0,165.181c22.052,53.252,63.532,94.733,116.8,116.8
			c26.634,11.029,54.61,16.548,82.594,16.54c27.976,0,55.953-5.51,82.58-16.539c53.252-22.06,94.733-63.54,116.799-116.808
			C477.354,309.205,477.354,250.544,455.294,197.292z"/>
	</g>
</g>
<g>
	<g>
		<path d="M344.582,17.748C287.397-5.919,224.403-5.919,167.201,17.764c-2.037,0.843-3.005,3.185-2.162,5.222
			c0.64,1.538,2.123,2.467,3.692,2.467c0.507,0,1.03-0.094,1.53-0.304c55.227-22.872,116.05-22.88,171.261-0.016
			c2.045,0.858,4.371-0.125,5.222-2.163C347.588,20.933,346.62,18.591,344.582,17.748z"/>
	</g>
</g>
<g>
	<g>
		<path d="M338.487,32.533c-53.252-22.06-111.914-22.06-165.166,0c-2.037,0.843-3.005,3.184-2.162,5.222
			c0.851,2.038,3.193,3.037,5.222,2.163c51.285-21.232,107.776-21.225,159.045,0c0.5,0.21,1.023,0.304,1.53,0.304
			c1.569,0,3.052-0.929,3.693-2.467C341.492,35.718,340.524,33.376,338.487,32.533z"/>
	</g>
</g>
<g>
	<g>
		<path d="M252.151,120.014h-0.085c-2.201,0-3.95,1.788-3.95,3.997s1.827,3.996,4.036,3.996c2.202,0,3.996-1.787,3.996-3.996
			S254.353,120.014,252.151,120.014z"/>
	</g>
</g>
<g>
	<g>
		<path d="M260.146,64.061h-0.086c-2.201,0-3.95,1.787-3.95,3.996c0,2.209,1.827,3.997,4.036,3.997c2.201,0,3.996-1.788,3.996-3.997
			C264.142,65.848,262.347,64.061,260.146,64.061z"/>
	</g>
</g>
<g>
	<g>
		<path d="M259.6,278.356l-87.176-210.47c-0.844-2.038-3.17-3.014-5.223-2.163c-2.037,0.844-3.005,3.185-2.162,5.223l87.176,210.47
			c0.64,1.538,2.124,2.467,3.692,2.467c0.508,0,1.03-0.094,1.531-0.305C259.475,282.735,260.444,280.393,259.6,278.356z"/>
	</g>
</g>
<g>
	<g>
		<path d="M344.614,65.715c-2.03-0.858-4.371,0.133-5.222,2.163l-87.177,210.478c-0.843,2.037,0.125,4.379,2.163,5.222
			c0.499,0.211,1.022,0.305,1.529,0.305c1.569,0,3.053-0.929,3.693-2.467l87.176-210.478C347.62,68.9,346.652,66.558,344.614,65.715
			z"/>
	</g>
</g>
<g>
	<g>
		<path d="M259.599,230.396l-87.176-210.47c-0.844-2.029-3.17-3.013-5.223-2.162c-2.037,0.843-3.005,3.185-2.162,5.222
			l87.177,210.471c0.64,1.538,2.124,2.467,3.692,2.467c0.508,0,1.03-0.094,1.53-0.306
			C259.474,234.775,260.443,232.434,259.599,230.396z"/>
	</g>
</g>
<g>
	<g>
		<path d="M344.622,17.757c-2.037-0.867-4.371,0.133-5.222,2.162l-87.185,210.478c-0.843,2.037,0.125,4.379,2.163,5.222
			c0.499,0.211,1.022,0.305,1.529,0.305c1.569,0,3.053-0.93,3.692-2.467l87.185-210.478C347.628,20.942,346.66,18.6,344.622,17.757z
			"/>
	</g>
</g>
<g>
	<g>
		<path d="M255.907,48.075c-13.222,0-23.979,10.756-23.979,23.98c0,13.222,10.756,23.979,23.979,23.979
			c13.224,0,23.979-10.757,23.98-23.979C279.887,58.831,269.131,48.075,255.907,48.075z M255.907,88.04
			c-8.812,0-15.986-7.174-15.986-15.986c0-8.813,7.174-15.986,15.986-15.986c8.813,0,15.987,7.173,15.988,15.986
			C271.895,80.866,264.721,88.04,255.907,88.04z"/>
	</g>
</g>
<g>
	<g>
		<path d="M244.159,439.743h-0.086c-2.201,0-3.95,1.787-3.95,3.997c0,2.209,1.827,3.996,4.036,3.996
			c2.201,0,3.997-1.787,3.997-3.996C248.156,441.53,246.36,439.743,244.159,439.743z"/>
	</g>
</g>
<g>
	<g>
		<path d="M292.119,407.77h-0.086c-2.201,0-3.949,1.787-3.949,3.996c0,2.209,1.826,3.997,4.035,3.997
			c2.201,0,3.996-1.788,3.996-3.997C296.115,409.557,294.32,407.77,292.119,407.77z"/>
	</g>
</g>
<g>
	<g>
		<path d="M252.121,327.838h-0.086c-2.201,0-3.95,1.787-3.95,3.996c0,2.209,1.827,3.997,4.036,3.997
			c2.202,0,3.997-1.788,3.997-3.997C256.118,329.625,254.322,327.838,252.121,327.838z"/>
	</g>
</g>
<g>
	<g>
		<path d="M260.146,175.967h-0.086c-2.201,0-3.95,1.787-3.95,3.996c0,2.209,1.827,3.997,4.036,3.997
			c2.201,0,3.996-1.788,3.996-3.997C264.142,177.754,262.347,175.967,260.146,175.967z"/>
	</g>
</g>
<g>
	<g>
		<path d="M244.159,72.055h-0.086c-2.201,0-3.95,1.787-3.95,3.996s1.827,3.997,4.036,3.997c2.201,0,3.997-1.788,3.997-3.997
			S246.36,72.055,244.159,72.055z"/>
	</g>
</g>
<g>
	<g>
		<path d="M292.119,96.033h-0.086c-2.201,0-3.949,1.788-3.949,3.997s1.826,3.997,4.035,3.997c2.201,0,3.996-1.788,3.996-3.997
			S294.32,96.033,292.119,96.033z"/>
	</g>
</g>
<g>
	<g>
		<path d="M228.173,399.777h-0.086c-2.201,0-3.95,1.787-3.95,3.996c0,2.209,1.827,3.997,4.036,3.997
			c2.201,0,3.997-1.788,3.997-3.997C232.17,401.564,230.374,399.777,228.173,399.777z"/>
	</g>
</g>
<g>
	<g>
		<path d="M260.146,431.75h-0.086c-2.201,0-3.95,1.787-3.95,3.996c0,2.209,1.827,3.997,4.036,3.997c2.201,0,3.996-1.788,3.996-3.997
			C264.142,433.537,262.347,431.75,260.146,431.75z"/>
	</g>
</g>
<g>
	<g>
		<path d="M255.907,415.764c-13.222,0-23.979,10.756-23.979,23.979c0,13.223,10.756,23.979,23.979,23.979
			c13.224,0,23.98-10.756,23.98-23.979C279.887,426.52,269.131,415.764,255.907,415.764z M255.907,455.729
			c-8.812,0-15.986-7.174-15.986-15.986c0-8.813,7.174-15.986,15.986-15.986c8.813,0,15.987,7.172,15.988,15.986
			C271.895,448.555,264.721,455.729,255.907,455.729z"/>
	</g>
</g>
<g>
	<g>
		<path d="M268.285,365.423l-0.655-0.655c-1.561-1.562-4.089-1.562-5.651,0c-1.561,1.552-1.561,4.089,0,5.651l0.672,0.671
			c4.161,4.138,5.503,5.901,4.223,9.492c-0.164,0.469-0.312,0.859-0.445,1.171c-4.332-2.443-9.749-3.638-17.376,4.005
			c-1.561,1.56-1.561,4.089,0,5.651c0.781,0.78,1.804,1.171,2.826,1.171c1.023,0,2.045-0.391,2.824-1.171
			c4.598-4.605,6.081-3.731,8.142-2.49c1.452,0.882,3.669,2.185,6.315,1.241c2.818-1.007,4.191-3.919,5.245-6.908
			C277.489,374.572,272.173,369.287,268.285,365.423z"/>
	</g>
</g>
<g>
	<g>
		<path d="M267.086,364.237l-0.633-0.64c-3.863-3.896-9.148-9.235-17.844-6.144c-2.99,1.061-5.901,2.435-6.908,5.246
			c-0.96,2.677,0.358,4.871,1.233,6.322c1.233,2.045,2.123,3.529-2.482,8.134c-1.562,1.561-1.562,4.09,0,5.651
			c0.78,0.781,1.803,1.171,2.825,1.171c1.023,0,2.045-0.389,2.826-1.17c7.626-7.626,6.44-13.058,3.997-17.368
			c0.32-0.132,0.71-0.28,1.186-0.452c3.552-1.241,5.348,0.062,9.493,4.246l0.655,0.656c1.561,1.561,4.09,1.561,5.652,0
			C268.647,368.328,268.647,365.799,267.086,364.237z"/>
	</g>
</g>
<g>
	<g>
		<path d="M254.704,385.758l-8.602-8.603c-1.561-1.562-4.09-1.562-5.651,0c-1.562,1.561-1.562,4.09,0,5.651l8.602,8.603
			c0.781,0.78,1.804,1.171,2.826,1.171c1.023,0,2.045-0.391,2.825-1.171C256.266,389.848,256.266,387.319,254.704,385.758z"/>
	</g>
</g>
<g>
	<g>
		<path d="M266.42,153.868c-1.357-1.764-3.878-2.069-5.604-0.718l-0.733,0.57c-4.645,3.63-6.573,4.715-9.961,3.005
			c-0.444-0.226-0.811-0.429-1.116-0.601c2.974-3.958,4.84-9.195-1.764-17.735c-1.358-1.756-3.872-2.069-5.604-0.718
			c-1.749,1.35-2.069,3.863-0.719,5.604c3.99,5.16,2.92,6.518,1.437,8.392c-1.045,1.327-2.638,3.333-2.021,6.112
			c0.64,2.92,3.349,4.645,6.182,6.081c2.326,1.17,4.465,1.647,6.432,1.647c5.012,0,8.945-3.06,12.043-5.481l0.71-0.554
			C267.45,158.122,267.771,155.608,266.42,153.868z"/>
	</g>
</g>
<g>
	<g>
		<path d="M275.367,141.526c-0.671-3.107-1.654-6.159-4.324-7.517c-2.561-1.296-4.879-0.258-6.424,0.43
			c-2.186,0.968-3.763,1.655-7.752-3.489c-1.35-1.765-3.872-2.069-5.605-0.719c-1.748,1.351-2.069,3.856-0.718,5.605
			c6.612,8.563,12.147,8.041,16.721,6.167c0.086,0.328,0.187,0.734,0.296,1.218c0.812,3.724-0.749,5.308-5.417,8.891l-0.734,0.57
			c-1.748,1.35-2.069,3.863-0.718,5.604c0.788,1.023,1.968,1.554,3.161,1.554c0.86,0,1.718-0.274,2.443-0.837l0.719-0.554
			C271.371,155.109,277.335,150.526,275.367,141.526z"/>
	</g>
</g>
<g>
	<g>
		<path d="M256.867,130.951c-1.35-1.765-3.872-2.069-5.605-0.719l-9.624,7.439c-1.749,1.35-2.069,3.855-0.719,5.604
			c0.789,1.023,1.968,1.554,3.162,1.554c0.859,0,1.717-0.274,2.443-0.835l9.625-7.439
			C257.898,135.205,258.218,132.699,256.867,130.951z"/>
	</g>
</g>
<g>
	<g>
		<path d="M211.851,457.627c-3.778-2.943-8.36-1.905-8.868-1.78c-2.116,0.531-3.38,2.647-2.888,4.77
			c0.491,2.115,2.591,3.419,4.761,3.005c0.343-0.086,1.483-0.172,2.092,0.32c0.632,0.515,0.999,1.896,0.999,3.778
			c0,2.209,1.788,3.996,3.997,3.996c2.209,0,3.997-1.788,3.997-3.996C215.941,463.146,214.567,459.75,211.851,457.627z"/>
	</g>
</g>
<g>
	<g>
		<path d="M319.713,466.829c-0.492-2.116-2.592-3.428-4.762-3.006c-0.352,0.078-1.49,0.172-2.092-0.32
			c-0.633-0.514-0.999-1.896-0.999-3.777c0-2.209-1.788-3.997-3.997-3.997c-2.209,0-3.996,1.788-3.996,3.997
			c0,4.574,1.373,7.97,4.09,10.093c2.146,1.671,4.55,2.061,6.315,2.061c1.351,0,2.334-0.227,2.552-0.282
			C318.941,471.067,320.205,468.952,319.713,466.829z"/>
	</g>
</g>
<g>
	<g>
		<path d="M215.802,59.174c-0.492-2.115-2.592-3.426-4.762-3.005c-0.351,0.078-1.491,0.172-2.092-0.32
			c-0.632-0.515-0.999-1.897-0.999-3.778c0-2.209-1.788-3.997-3.997-3.997c-2.21,0-3.997,1.788-3.997,3.997
			c0,4.574,1.374,7.97,4.09,10.093c2.147,1.671,4.55,2.061,6.315,2.061c1.35,0,2.334-0.226,2.554-0.281
			C215.03,63.412,216.294,61.297,215.802,59.174z"/>
	</g>
</g>
<g>
	<g>
		<path d="M299.87,40.081c-6.611,0-11.989,5.379-11.989,11.99s5.378,11.99,11.989,11.99c6.612,0,11.99-5.378,11.99-11.99
			S306.482,40.081,299.87,40.081z M299.87,56.068c-2.201,0-3.996-1.795-3.996-3.997s1.795-3.997,3.996-3.997
			s3.997,1.796,3.997,3.997S302.071,56.068,299.87,56.068z"/>
	</g>
</g>
<g>
	<g>
		<path d="M143.112,168.488h-0.086c-2.201,0-3.949,1.788-3.949,3.997s1.826,3.996,4.035,3.996c2.201,0,3.997-1.787,3.997-3.996
			S145.313,168.488,143.112,168.488z"/>
	</g>
</g>
<g>
	<g>
		<path d="M137.46,151.533h-0.086c-2.201,0-3.95,1.788-3.95,3.997s1.827,3.997,4.036,3.997c2.201,0,3.997-1.787,3.997-3.997
			C141.457,153.32,139.661,151.533,137.46,151.533z"/>
	</g>
</g>
<g>
	<g>
		<path d="M159.824,149.879c-9.063-9.062-24.862-9.047-33.909,0c-9.352,9.352-9.36,24.565-0.008,33.917
			c4.527,4.527,10.554,7.025,16.962,7.025c6.402,0,12.428-2.498,16.955-7.025c4.527-4.528,7.025-10.547,7.025-16.955
			S164.351,154.406,159.824,149.879z M154.172,178.145c-6.05,6.042-16.58,6.042-22.614,0c-6.229-6.23-6.229-16.377,0.008-22.614
			c3.013-3.013,7.033-4.676,11.303-4.676c4.271,0,8.283,1.662,11.303,4.676c3.021,3.021,4.684,7.041,4.684,11.311
			C158.856,171.112,157.193,175.124,154.172,178.145z"/>
	</g>
</g>
<g>
	<g>
		<path d="M363.535,400.229h-0.086c-2.201,0-3.949,1.788-3.949,3.997c0,2.209,1.826,3.996,4.035,3.996
			c2.201,0,3.996-1.787,3.996-3.996C367.531,402.017,365.736,400.229,363.535,400.229z"/>
	</g>
</g>
<g>
	<g>
		<path d="M374.838,343.715h-0.086c-2.201,0-3.949,1.788-3.949,3.997c0,2.209,1.826,3.996,4.035,3.996
			c2.201,0,3.997-1.787,3.997-3.996C378.835,345.503,377.039,343.715,374.838,343.715z"/>
	</g>
</g>
<g>
	<g>
		<path d="M290.035,315.474h-0.086c-2.201,0-3.95,1.787-3.95,3.996c0,2.209,1.827,3.997,4.036,3.997
			c2.201,0,3.996-1.788,3.996-3.997C294.031,317.261,292.236,315.474,290.035,315.474z"/>
	</g>
</g>
<g>
	<g>
		<path d="M222.232,236.321h-0.086c-2.201,0-3.95,1.788-3.95,3.997s1.827,3.997,4.036,3.997c2.202,0,3.997-1.788,3.997-3.997
			S224.434,236.321,222.232,236.321z"/>
	</g>
</g>
<g>
	<g>
		<path d="M165.717,202.413h-0.085c-2.201,0-3.95,1.787-3.95,3.996c0,2.209,1.827,3.997,4.036,3.997
			c2.201,0,3.996-1.788,3.996-3.997C169.714,204.2,167.919,202.413,165.717,202.413z"/>
	</g>
</g>
<g>
	<g>
		<path d="M188.324,157.192h-0.086c-2.201,0-3.95,1.788-3.95,3.997c0,2.209,1.827,3.997,4.036,3.997
			c2.201,0,3.997-1.788,3.997-3.997C192.321,158.98,190.525,157.192,188.324,157.192z"/>
	</g>
</g>
<g>
	<g>
		<path d="M323.974,383.275h-0.086c-2.201,0-3.949,1.787-3.949,3.996c0,2.209,1.826,3.997,4.035,3.997
			c2.202,0,3.997-1.788,3.997-3.997C327.971,385.062,326.175,383.275,323.974,383.275z"/>
	</g>
</g>
<g>
	<g>
		<path d="M382.831,385.617h-0.086c-2.201,0-3.949,1.787-3.949,3.996c0,2.209,1.826,3.997,4.035,3.997
			c2.201,0,3.997-1.788,3.997-3.997C386.828,387.404,385.032,385.617,382.831,385.617z"/>
	</g>
</g>
<g>
	<g>
		<path d="M385.898,375.969c-9.054-9.047-24.853-9.062-33.908,0c-9.352,9.351-9.352,24.557,0,33.909
			c4.527,4.527,10.554,7.025,16.962,7.025c6.401,0,12.427-2.498,16.954-7.025C395.25,400.527,395.242,385.313,385.898,375.969z
			 M380.255,404.226c-6.042,6.049-16.572,6.033-22.614,0c-6.229-6.229-6.229-16.377,0-22.606c3.021-3.021,7.033-4.683,11.303-4.683
			c4.271,0,8.282,1.662,11.303,4.683C386.476,387.849,386.484,397.997,380.255,404.226z"/>
	</g>
</g>
<g>
	<g>
		<path d="M342.091,339.884c-3.972-8.306-11.513-8.306-16.985-8.267h-0.89c-2.209,0-3.996,1.787-3.996,3.996
			c0,2.209,1.787,3.997,3.996,3.997h0.913c6.269,0,8.11,0.281,9.75,3.715c0.211,0.453,0.382,0.836,0.507,1.156
			c-4.769,1.31-9.453,4.308-9.453,15.111c0,2.209,1.788,3.997,3.997,3.997s3.998-1.788,3.997-3.995c0-6.526,1.678-6.94,3.996-7.517
			c1.64-0.406,4.122-1.023,5.34-3.591C344.542,345.777,343.458,342.756,342.091,339.884z"/>
	</g>
</g>
<g>
	<g>
		<path d="M323.468,331.631h-0.921c-5.386-0.023-12.989-0.054-16.939,8.267c-1.366,2.865-2.459,5.893-1.179,8.594
			c1.21,2.576,3.7,3.185,5.34,3.591c2.318,0.577,3.996,0.991,3.988,7.509c0,2.201,1.788,3.997,3.997,3.997
			c2.209,0,3.996-1.788,3.996-3.998c0.007-10.788-4.668-13.786-9.438-15.104c0.125-0.32,0.297-0.703,0.516-1.156
			c1.624-3.434,3.802-3.746,9.688-3.707h0.952c2.209,0,3.996-1.788,3.996-3.997C327.464,333.418,325.677,331.631,323.468,331.631z"
			/>
	</g>
</g>
<g>
	<g>
		<path d="M329.93,355.596h-12.177c-2.209,0-3.997,1.787-3.997,3.996c0,2.209,1.788,3.997,3.997,3.997h12.177
			c2.209,0,3.997-1.788,3.997-3.997C333.927,357.383,332.139,355.596,329.93,355.596z"/>
	</g>
</g>
<g>
	<g>
		<path d="M208.151,217.244c-2.147-0.305-4.192,1.272-4.473,3.458l-0.117,0.929c-0.727,5.839-1.304,7.985-4.926,9.172
			c-0.468,0.156-0.866,0.273-1.202,0.367c-0.694-4.91-3.075-9.937-13.793-11.303c-2.194-0.312-4.192,1.272-4.473,3.458
			c-0.281,2.194,1.272,4.192,3.458,4.473c6.478,0.827,6.674,2.544,6.947,4.917c0.196,1.678,0.492,4.223,2.888,5.753
			c1.085,0.694,2.287,0.96,3.536,0.96c1.663,0,3.419-0.46,5.138-1.022c8.757-2.881,9.687-10.343,10.358-15.792l0.117-0.897
			C211.89,219.523,210.337,217.525,208.151,217.244z"/>
	</g>
</g>
<g>
	<g>
		<path d="M205.745,202.209c-2.662-1.725-5.526-3.177-8.376-2.264c-2.7,0.882-3.622,3.263-4.238,4.84
			c-0.859,2.225-1.428,3.832-7.946,3.013c-2.162-0.32-4.192,1.272-4.473,3.458c-0.281,2.194,1.272,4.192,3.458,4.473
			c10.757,1.398,14.277-2.888,16.174-7.454c0.304,0.171,0.664,0.382,1.085,0.655c3.201,2.053,3.224,4.27,2.459,10.093l-0.117,0.937
			c-0.281,2.185,1.273,4.184,3.466,4.465c0.164,0.023,0.335,0.031,0.507,0.031c1.983,0,3.701-1.475,3.957-3.497l0.117-0.898
			C212.528,214.62,213.504,207.173,205.745,202.209z"/>
	</g>
</g>
<g>
	<g>
		<path d="M185.185,207.799c-2.162-0.32-4.192,1.272-4.473,3.458l-1.545,12.068c-0.281,2.186,1.265,4.192,3.458,4.473
			c0.172,0.023,0.343,0.031,0.515,0.031c1.975,0,3.7-1.476,3.957-3.489l1.546-12.068
			C188.924,210.086,187.378,208.08,185.185,207.799z"/>
	</g>
</g>
<g>
	<g>
		<path d="M360.467,440.961c-3.223-3.223-6.534-4.652-10.023-4.238c-4.737,0.577-7.259,4.551-7.532,5.003
			c-1.132,1.889-0.524,4.348,1.366,5.487c0.648,0.382,1.359,0.57,2.061,0.57c1.35,0,2.676-0.688,3.427-1.936
			c0.008-0.007,0.78-1.086,1.654-1.194c0.789,0.008,2.053,0.616,3.396,1.959c1.56,1.562,4.089,1.562,5.651,0
			C362.028,445.051,362.028,442.522,360.467,440.961z"/>
	</g>
</g>
<g>
	<g>
		<path d="M433.187,366.891c-1.882-1.116-4.347-0.524-5.488,1.366c-0.008,0.007-0.78,1.085-1.654,1.194
			c-0.743,0.008-2.053-0.617-3.396-1.959c-1.561-1.562-4.09-1.562-5.651,0c-1.562,1.56-1.562,4.089,0,5.651
			c2.864,2.865,5.838,4.309,8.859,4.309c0.383,0,0.773-0.024,1.163-0.07c4.738-0.577,7.26-4.551,7.532-5.004
			C435.685,370.49,435.076,368.031,433.187,366.891z"/>
	</g>
</g>
<g>
	<g>
		<path d="M105.408,186.091c-1.85-1.155-4.309-0.586-5.488,1.241c-0.195,0.297-0.928,1.171-1.717,1.257
			c-0.835-0.023-2.045-0.632-3.372-1.959c-1.561-1.561-4.09-1.561-5.651,0c-1.562,1.561-1.562,4.09,0,5.651
			c2.865,2.865,5.839,4.309,8.852,4.309c0.391,0,0.781-0.024,1.17-0.07c4.746-0.586,7.26-4.559,7.533-5.012
			C107.859,189.643,107.258,187.254,105.408,186.091z"/>
	</g>
</g>
<g>
	<g>
		<path d="M168.3,113.144c-4.527-4.527-12.427-4.527-16.954,0c-2.264,2.264-3.513,5.277-3.513,8.478c0,3.2,1.249,6.213,3.513,8.477
			c2.264,2.264,5.277,3.513,8.478,3.513s6.212-1.249,8.476-3.513c2.264-2.264,3.513-5.277,3.513-8.477
			C171.813,118.421,170.564,115.408,168.3,113.144z M162.649,124.447c-1.514,1.515-4.136,1.515-5.651,0
			c-0.757-0.757-1.171-1.756-1.171-2.825c0-1.069,0.414-2.069,1.171-2.826c0.757-0.757,1.756-1.171,2.826-1.171
			s2.069,0.414,2.825,1.171c0.757,0.757,1.171,1.757,1.171,2.826C163.82,122.691,163.406,123.69,162.649,124.447z"/>
	</g>
</g>
<g>
	<g>
		<path d="M100.281,279.879h-0.085c-2.202,0-3.95,1.787-3.95,3.996c0,2.209,1.826,3.996,4.035,3.996
			c2.201,0,3.997-1.787,3.997-3.996C104.278,281.666,102.483,279.879,100.281,279.879z"/>
	</g>
</g>
<g>
	<g>
		<path d="M84.302,271.885h-0.086c-2.201,0-3.949,1.788-3.949,3.997c0,2.209,1.826,3.997,4.035,3.997
			c2.201,0,3.997-1.788,3.997-3.997C88.299,273.673,86.503,271.885,84.302,271.885z"/>
	</g>
</g>
<g>
	<g>
		<path d="M470.07,191.172c-0.844-2.03-3.178-3.006-5.223-2.163l-190.814,79.035c-2.037,0.843-3.006,3.185-2.162,5.222
			c0.639,1.538,2.123,2.467,3.691,2.467c0.508,0,1.032-0.094,1.531-0.304l190.815-79.035
			C469.945,195.551,470.913,193.21,470.07,191.172z"/>
	</g>
</g>
<g>
	<g>
		<path d="M240.069,286.451c-0.843-2.037-3.169-3.014-5.222-2.162L43.915,363.362c-2.037,0.843-3.005,3.185-2.162,5.223
			c0.64,1.537,2.123,2.466,3.692,2.466c0.507,0,1.03-0.094,1.529-0.304l190.933-79.074
			C239.944,290.83,240.912,288.488,240.069,286.451z"/>
	</g>
</g>
<g>
	<g>
		<path d="M249.366,295.732c-2.014-0.859-4.371,0.117-5.222,2.162L165.039,488.81c-0.843,2.037,0.125,4.379,2.162,5.223
			c0.5,0.211,1.015,0.305,1.53,0.305c1.569,0,3.051-0.93,3.693-2.467l79.104-190.917
			C252.371,298.917,251.403,296.575,249.366,295.732z"/>
	</g>
</g>
<g>
	<g>
		<path d="M346.776,488.81l-79.058-190.932c-0.843-2.029-3.169-3.021-5.222-2.162c-2.037,0.843-3.006,3.185-2.162,5.222
			l79.058,190.933c0.639,1.537,2.123,2.467,3.692,2.467c0.507,0,1.03-0.094,1.53-0.305
			C346.652,493.189,347.62,490.847,346.776,488.81z"/>
	</g>
</g>
<g>
	<g>
		<path d="M237.782,268.045L46.99,188.994c-2.022-0.85-4.371,0.118-5.222,2.163c-0.843,2.037,0.125,4.379,2.162,5.222l190.792,79.05
			c0.499,0.21,1.015,0.304,1.53,0.304c1.569,0,3.052-0.929,3.692-2.466C240.787,271.23,239.819,268.888,237.782,268.045z"/>
	</g>
</g>
<g>
	<g>
		<path d="M467.901,363.362L277,284.258c-2.014-0.844-4.371,0.117-5.222,2.162c-0.844,2.037,0.125,4.379,2.162,5.222l190.9,79.105
			c0.5,0.21,1.014,0.304,1.53,0.304c1.569,0,3.052-0.929,3.693-2.466C470.906,366.547,469.938,364.205,467.901,363.362z"/>
	</g>
</g>
<g>
	<g>
		<path d="M96.049,255.899c-13.223,0-23.979,10.756-23.979,23.98c0,13.215,10.749,23.979,23.972,23.987
			c13.231-0.008,23.988-10.772,23.986-23.987C120.028,266.656,109.272,255.899,96.049,255.899z M96.043,295.872
			c-8.813-0.008-15.979-7.182-15.979-15.994c0-8.813,7.173-15.986,15.986-15.986s15.986,7.173,15.987,15.986
			C112.037,288.69,104.863,295.864,96.043,295.872z"/>
	</g>
</g>
<g>
	<g>
		<path d="M428.004,279.887h-0.086c-2.201,0-3.949,1.787-3.949,3.996c0,2.209,1.826,3.996,4.035,3.996
			c2.201,0,3.997-1.787,3.997-3.996C432.001,281.674,430.205,279.887,428.004,279.887z"/>
	</g>
</g>
<g>
	<g>
		<path d="M388.046,239.928h-0.086c-2.201,0-3.95,1.788-3.95,3.997s1.827,3.996,4.036,3.996c2.201,0,3.996-1.787,3.996-3.996
			S390.247,239.928,388.046,239.928z"/>
	</g>
</g>
<g>
	<g>
		<path d="M308.105,279.918h-0.086c-2.201,0-3.949,1.787-3.949,3.996c0,2.209,1.826,3.996,4.035,3.996
			c2.201,0,3.996-1.787,3.996-3.996C312.101,281.705,310.306,279.918,308.105,279.918z"/>
	</g>
</g>
<g>
	<g>
		<path d="M204.185,271.885h-0.086c-2.201,0-3.949,1.788-3.949,3.997c0,2.209,1.826,3.997,4.035,3.997
			c2.201,0,3.997-1.788,3.997-3.997C208.182,273.673,206.386,271.885,204.185,271.885z"/>
	</g>
</g>
<g>
	<g>
		<path d="M140.255,287.871h-0.086c-2.201,0-3.95,1.788-3.95,3.997c0,2.209,1.827,3.997,4.036,3.997
			c2.201,0,3.996-1.788,3.996-3.997C144.251,289.659,142.456,287.871,140.255,287.871z"/>
	</g>
</g>
<g>
	<g>
		<path d="M124.268,239.912h-0.086c-2.201,0-3.95,1.788-3.95,3.997c0,2.209,1.827,3.996,4.036,3.996
			c2.201,0,3.997-1.787,3.997-3.996C128.265,241.7,126.469,239.912,124.268,239.912z"/>
	</g>
</g>
<g>
	<g>
		<path d="M380.053,303.858h-0.086c-2.201,0-3.95,1.787-3.95,3.996c0,2.21,1.827,3.997,4.036,3.997c2.201,0,3.996-1.787,3.996-3.997
			C384.049,305.645,382.254,303.858,380.053,303.858z"/>
	</g>
</g>
<g>
	<g>
		<path d="M404.024,279.887h-0.086c-2.201,0-3.95,1.787-3.95,3.996c0,2.209,1.827,3.996,4.036,3.996
			c2.201,0,3.997-1.787,3.997-3.996C408.021,281.674,406.225,279.887,404.024,279.887z"/>
	</g>
</g>
<g>
	<g>
		<path d="M415.757,255.907c-13.216,0-23.964,10.756-23.964,23.98c0,13.214,10.755,23.971,23.979,23.979
			c13.223,0,23.988-10.765,23.988-23.994C439.744,266.656,428.972,255.907,415.757,255.907z M415.771,295.873
			c-8.813-0.007-15.987-7.181-15.987-15.986c0-4.271,1.663-8.283,4.684-11.304c3.022-3.021,7.033-4.683,11.304-4.683
			c8.805,0,15.979,7.173,15.993,15.979C431.765,288.699,424.591,295.873,415.771,295.873z"/>
	</g>
</g>
<g>
	<g>
		<path d="M367.446,281.081c-4.62-4.621-3.722-6.096-2.489-8.141c0.874-1.444,2.193-3.637,1.233-6.315
			c-1.007-2.81-3.911-4.184-6.9-5.253c-8.665-3.061-13.981,2.255-17.853,6.15l-0.64,0.648c-1.562,1.56-1.562,4.089,0,5.651
			c1.56,1.562,4.089,1.562,5.651,0l0.663-0.663c4.146-4.169,5.933-5.512,9.5-4.255c0.477,0.172,0.859,0.32,1.179,0.453
			c-2.451,4.309-3.638,9.733,4.005,17.376c0.78,0.78,1.803,1.17,2.825,1.17s2.045-0.39,2.826-1.169
			C369.008,285.172,369.008,282.643,367.446,281.081z"/>
	</g>
</g>
<g>
	<g>
		<path d="M358.829,289.683c-7.619-7.634-13.043-6.447-17.353-3.997c-0.133-0.32-0.28-0.702-0.452-1.178
			c-1.273-3.583,0.07-5.347,4.23-9.484l0.679-0.672c1.562-1.56,1.562-4.089,0-5.651c-1.56-1.562-4.089-1.562-5.651,0l-0.655,0.648
			c-3.896,3.863-9.227,9.156-6.136,17.836c1.061,2.99,2.428,5.893,5.246,6.908c2.637,0.945,4.862-0.358,6.314-1.241
			c2.053-1.218,3.528-2.116,8.126,2.482c0.78,0.781,1.804,1.171,2.825,1.171c1.023,0,2.046-0.39,2.827-1.171
			C360.391,293.774,360.391,291.245,358.829,289.683z"/>
	</g>
</g>
<g>
	<g>
		<path d="M367.445,281.08c-1.56-1.561-4.089-1.561-5.65,0l-8.618,8.603c-1.562,1.553-1.562,4.09,0,5.651
			c0.78,0.781,1.804,1.171,2.825,1.171c1.023,0,2.046-0.39,2.826-1.171l8.617-8.602C369.007,285.179,369.007,282.642,367.445,281.08
			z"/>
	</g>
</g>
<g>
	<g>
		<path d="M184.038,270.825l-0.57-0.742c-1.35-1.741-3.856-2.061-5.612-0.726c-1.749,1.35-2.069,3.863-0.726,5.612l0.593,0.757
			c3.599,4.629,4.699,6.557,2.982,9.952c-0.226,0.446-0.421,0.805-0.593,1.102c-3.965-2.975-9.211-4.825-17.735,1.771
			c-1.748,1.35-2.069,3.864-0.718,5.604c0.788,1.023,1.967,1.554,3.161,1.554c0.858,0,1.717-0.274,2.443-0.834
			c5.153-3.997,6.511-2.919,8.392-1.436c1.327,1.046,3.301,2.662,6.104,2.029c2.919-0.649,4.652-3.349,6.08-6.182
			C192,281.073,187.394,275.149,184.038,270.825z"/>
	</g>
</g>
<g>
	<g>
		<path d="M182.999,269.481l-0.562-0.726c-3.349-4.348-7.939-10.327-16.923-8.329c-3.107,0.672-6.16,1.655-7.518,4.325
			c-1.288,2.528-0.257,4.87,0.43,6.424c0.968,2.186,1.663,3.763-3.489,7.751c-1.748,1.35-2.068,3.864-0.718,5.605
			c0.789,1.023,1.968,1.553,3.162,1.553c0.859,0,1.717-0.274,2.443-0.835c8.531-6.604,8.048-12.138,6.166-16.72
			c0.329-0.086,0.735-0.188,1.226-0.297c3.723-0.789,5.3,0.742,8.883,5.394l0.578,0.757c1.35,1.741,3.848,2.053,5.612,0.711
			C184.03,273.736,184.35,271.23,182.999,269.481z"/>
	</g>
</g>
<g>
	<g>
		<path d="M167.981,289.27l-7.439-9.625c-1.358-1.765-3.871-2.069-5.604-0.719c-1.748,1.35-2.068,3.856-0.718,5.605l7.439,9.624
			c0.788,1.023,1.967,1.554,3.161,1.554c0.858,0,1.717-0.274,2.443-0.835C169.012,293.524,169.332,291.018,167.981,289.27z"/>
	</g>
</g>
<g>
	<g>
		<path d="M443.74,319.845c-4.566,0-7.962,1.374-10.077,4.09c-2.95,3.762-1.92,8.352-1.795,8.86c0.452,1.818,2.084,3.036,3.88,3.036
			c0.311,0,0.639-0.039,0.959-0.117c2.148-0.53,3.451-2.7,2.92-4.84c0-0.016-0.211-1.32,0.328-2.014
			c0.507-0.647,1.889-1.022,3.785-1.022c2.209,0,3.997-1.787,3.997-3.996C447.737,321.632,445.949,319.845,443.74,319.845z"/>
	</g>
</g>
<g>
	<g>
		<path d="M447.635,218.968c-0.53-2.139-2.685-3.45-4.84-2.919c-2.147,0.531-3.45,2.701-2.919,4.84c0,0.016,0.211,1.319-0.328,2.014
			c-0.508,0.647-1.889,1.022-3.785,1.022c-2.21,0-3.997,1.788-3.997,3.997c0,2.21,1.787,3.997,3.997,3.997
			c4.567,0,7.961-1.374,10.077-4.091C448.79,224.065,447.76,219.475,447.635,218.968z"/>
	</g>
</g>
<g>
	<g>
		<path d="M87.94,322.873c-0.531-2.116-2.616-3.349-4.77-2.888c-2.123,0.491-3.45,2.63-3.005,4.762
			c0.078,0.343,0.172,1.475-0.32,2.092c-0.515,0.632-1.896,0.999-3.778,0.999c-2.209,0-3.996,1.787-3.996,3.996
			c0,2.209,1.787,3.997,3.996,3.997c4.574,0,7.97-1.374,10.093-4.091C89.103,327.971,88.065,323.381,87.94,322.873z"/>
	</g>
</g>
<g>
	<g>
		<path d="M84.552,227.447c-2.263-2.272-5.277-3.521-8.485-3.521c-6.611,0-11.989,5.378-11.989,11.99
			c0,6.611,5.378,11.989,11.989,11.989c3.208,0,6.221-1.249,8.485-3.511c2.264-2.272,3.505-5.277,3.497-8.469
			C88.057,232.724,86.816,229.711,84.552,227.447z M78.893,238.741c-2.287,2.319-6.822,0.446-6.822-2.825
			c0-2.202,1.795-3.997,3.996-3.997c1.069,0,2.069,0.414,2.826,1.171c0.749,0.757,1.163,1.756,1.163,2.834
			C80.056,236.985,79.642,237.992,78.893,238.741z"/>
	</g>
</g>
<g>
	<g>
		<path d="M148.763,388.927h-0.086c-2.201,0-3.949,1.788-3.949,3.997c0,2.209,1.826,3.996,4.035,3.996
			c2.201,0,3.997-1.787,3.997-3.996C152.76,390.715,150.964,388.927,148.763,388.927z"/>
	</g>
</g>
<g>
	<g>
		<path d="M131.809,394.57h-0.086c-2.201,0-3.95,1.787-3.95,3.997c0,2.209,1.827,3.996,4.036,3.996c2.201,0,3.996-1.787,3.997-3.996
			C135.806,396.357,134.01,394.57,131.809,394.57z"/>
	</g>
</g>
<g>
	<g>
		<path d="M159.824,375.961c-9.055-9.054-24.854-9.047-33.909,0.008c-4.527,4.527-7.025,10.554-7.025,16.955
			c0,6.4,2.498,12.419,7.025,16.946c4.535,4.535,10.554,7.025,16.962,7.025c6.402,0,12.42-2.49,16.947-7.017
			C169.175,400.526,169.175,385.313,159.824,375.961z M154.172,404.227c-6.049,6.049-16.572,6.025-22.606-0.008
			c-3.021-3.022-4.684-7.033-4.684-11.295c0-4.271,1.663-8.283,4.684-11.304c3.021-3.021,7.033-4.683,11.303-4.683
			c4.271,0,8.283,1.662,11.303,4.676C160.409,387.85,160.409,397.99,154.172,404.227z"/>
	</g>
</g>
<g>
	<g>
		<path d="M372.511,168.504h-0.086c-2.201,0-3.949,1.788-3.949,3.997s1.826,3.996,4.035,3.996c2.202,0,3.998-1.787,3.997-3.996
			C376.508,170.292,374.712,168.504,372.511,168.504z"/>
	</g>
</g>
<g>
	<g>
		<path d="M323.99,157.192h-0.086c-2.201,0-3.949,1.788-3.949,3.997c0,2.209,1.826,3.997,4.035,3.997
			c2.201,0,3.997-1.788,3.997-3.997C327.987,158.98,326.191,157.192,323.99,157.192z"/>
	</g>
</g>
<g>
	<g>
		<path d="M295.741,241.996h-0.086c-2.201,0-3.95,1.788-3.95,3.997s1.827,3.997,4.036,3.997c2.201,0,3.996-1.788,3.996-3.997
			S297.942,241.996,295.741,241.996z"/>
	</g>
</g>
<g>
	<g>
		<path d="M216.581,309.807h-0.086c-2.201,0-3.95,1.787-3.95,3.996c0,2.209,1.827,3.997,4.036,3.997
			c2.201,0,3.997-1.788,3.997-3.997C220.578,311.594,218.782,309.807,216.581,309.807z"/>
	</g>
</g>
<g>
	<g>
		<path d="M182.68,366.312h-0.086c-2.201,0-3.95,1.788-3.95,3.997c0,2.209,1.827,3.997,4.036,3.997c2.201,0,3.997-1.788,3.997-3.997
			C186.677,368.1,184.881,366.312,182.68,366.312z"/>
	</g>
</g>
<g>
	<g>
		<path d="M137.46,343.699h-0.086c-2.201,0-3.95,1.788-3.95,3.997c0,2.209,1.827,3.996,4.036,3.996c2.201,0,3.997-1.787,3.997-3.996
			C141.457,345.487,139.661,343.699,137.46,343.699z"/>
	</g>
</g>
<g>
	<g>
		<path d="M363.551,208.048h-0.086c-2.201,0-3.949,1.788-3.949,3.997s1.826,3.997,4.035,3.997c2.201,0,3.996-1.788,3.996-3.997
			C367.547,209.835,365.752,208.048,363.551,208.048z"/>
	</g>
</g>
<g>
	<g>
		<path d="M357.891,157.192h-0.086c-2.201,0-3.95,1.788-3.95,3.997c0,2.209,1.827,3.997,4.036,3.997
			c2.202,0,3.997-1.788,3.997-3.997C361.888,158.98,360.092,157.192,357.891,157.192z"/>
	</g>
</g>
<g>
	<g>
		<path d="M385.906,149.871c-9.07-9.046-24.853-9.031-33.908,0.016c-4.527,4.528-7.017,10.546-7.025,16.955
			c0,6.408,2.498,12.435,7.025,16.962c4.527,4.527,10.546,7.025,16.946,7.025c6.409,0,12.427-2.49,16.97-7.025
			C395.265,174.444,395.265,159.23,385.906,149.871z M380.263,178.153c-6.05,6.034-16.564,6.049-22.614,0
			c-3.021-3.021-4.684-7.033-4.684-11.311c0-4.27,1.663-8.282,4.684-11.303c3.021-3.013,7.033-4.676,11.303-4.676
			c4.27,0,8.29,1.654,11.311,4.668C386.499,161.768,386.492,171.916,380.263,178.153z"/>
	</g>
</g>
<g>
	<g>
		<path d="M335.629,201.866c-6.533,0-6.947-1.678-7.524-3.996c-0.406-1.64-1.015-4.122-3.583-5.34
			c-2.709-1.288-5.738-0.203-8.603,1.163c-8.314,3.981-8.29,11.49-8.267,16.978v0.906c0,2.209,1.788,3.996,3.997,3.996
			s3.997-1.787,3.998-3.996v-0.937c-0.023-5.877,0.273-8.087,3.715-9.726c0.445-0.219,0.828-0.383,1.147-0.515
			c1.311,4.776,4.309,9.46,15.12,9.46c2.209,0,3.997-1.787,3.997-3.996S337.838,201.866,335.629,201.866z"/>
	</g>
</g>
<g>
	<g>
		<path d="M335.613,214.043c-0.008,0-0.015,0-0.031,0c-10.756,0-13.746,4.667-15.058,9.437c-0.319-0.133-0.702-0.296-1.155-0.515
			c-3.435-1.624-3.73-3.825-3.707-9.703v-0.952c0-2.209-1.788-3.997-3.997-3.997c-2.209,0-3.997,1.788-3.997,3.997v0.921
			c-0.024,5.488-0.055,13.005,8.274,16.955c1.96,0.936,4.005,1.748,5.964,1.748c0.897,0,1.772-0.172,2.623-0.57
			c2.569-1.218,3.185-3.701,3.591-5.348c0.569-2.31,0.983-3.98,7.454-3.98c0.016,0,0.023,0,0.039,0c2.209,0,3.997-1.788,3.997-3.997
			C339.61,215.838,337.822,214.043,335.613,214.043z"/>
	</g>
</g>
<g>
	<g>
		<path d="M335.637,201.866c-0.008,0-0.008,0-0.008,0c-2.201,0-3.996,1.788-3.996,3.989l-0.016,12.177
			c0,2.209,1.787,4.005,3.988,4.005c0.008,0,0.008,0,0.008,0c2.201,0,3.997-1.788,3.997-3.989l0.016-12.177
			C339.626,203.662,337.838,201.866,335.637,201.866z"/>
	</g>
</g>
<g>
	<g>
		<path d="M214.426,334.66c-2.872-8.75-10.319-9.679-15.752-10.366l-0.913-0.117c-2.248-0.296-4.191,1.257-4.48,3.45
			c-0.281,2.193,1.264,4.191,3.45,4.48l0.944,0.117c5.823,0.735,7.962,1.312,9.156,4.934c0.156,0.469,0.266,0.866,0.359,1.202
			c-4.902,0.694-9.921,3.083-11.287,13.793c-0.281,2.194,1.272,4.192,3.458,4.473c0.171,0.023,0.343,0.031,0.515,0.031
			c1.983,0,3.7-1.476,3.958-3.489c0.827-6.478,2.544-6.674,4.917-6.955c1.679-0.195,4.215-0.492,5.745-2.881
			C216.105,340.811,215.41,337.674,214.426,334.66z"/>
	</g>
</g>
<g>
	<g>
		<path d="M197.004,324.091l-0.867-0.109c-5.464-0.726-12.918-1.702-17.914,6.065c-1.71,2.67-3.177,5.526-2.248,8.376
			c0.882,2.7,3.27,3.622,4.847,4.238c2.232,0.858,3.84,1.483,3.013,7.946c-0.281,2.194,1.272,4.192,3.458,4.473
			c0.172,0.023,0.343,0.031,0.515,0.031c1.975,0,3.7-1.475,3.958-3.488c1.366-10.709-2.896-14.277-7.47-16.182
			c0.172-0.296,0.383-0.655,0.656-1.069c2.061-3.224,4.293-3.232,10.14-2.467l0.897,0.117c2.155,0.297,4.192-1.264,4.473-3.458
			C200.743,326.378,199.197,324.372,197.004,324.091z"/>
	</g>
</g>
<g>
	<g>
		<path d="M200.376,348.695l-12.068-1.546c-2.162-0.288-4.192,1.265-4.473,3.458c-0.281,2.186,1.265,4.192,3.458,4.473l12.068,1.546
			c0.171,0.023,0.343,0.031,0.515,0.031c1.975,0,3.7-1.476,3.958-3.489C204.115,350.982,202.569,348.976,200.376,348.695z"/>
	</g>
</g>
<g>
	<g>
		<path d="M421.93,186.067c-0.296-0.195-1.171-0.928-1.249-1.717c-0.086-0.82,0.625-2.046,1.952-3.373
			c1.562-1.56,1.562-4.089,0-5.651c-1.561-1.561-4.09-1.561-5.651,0c-3.224,3.224-4.652,6.596-4.239,10.015
			c0.578,4.739,4.552,7.267,4.996,7.533c0.64,0.391,1.343,0.57,2.037,0.57c1.327,0,2.615-0.672,3.38-1.882
			C424.319,189.72,423.749,187.261,421.93,186.067z"/>
	</g>
</g>
<g>
	<g>
		<path d="M353.411,108.773c-0.578-4.746-4.551-7.268-5.004-7.533c-1.857-1.124-4.332-0.546-5.479,1.358
			c-1.14,1.89-0.539,4.34,1.358,5.48c0.007,0.008,1.085,0.789,1.194,1.663c0.094,0.82-0.617,2.053-1.96,3.396
			c-1.561,1.561-1.561,4.09,0,5.651c0.781,0.781,1.804,1.171,2.826,1.171c1.023,0,2.045-0.39,2.826-1.171
			C352.404,115.564,353.824,112.192,353.411,108.773z"/>
	</g>
</g>
<g>
	<g>
		<path d="M172.547,436.576c-0.594-4.747-4.567-7.252-5.02-7.518c-1.889-1.155-4.347-0.522-5.479,1.374
			c-1.139,1.896-0.523,4.347,1.374,5.479c0.016,0.007,1.085,0.781,1.187,1.647c0.102,0.811-0.608,2.052-1.959,3.403
			c-1.561,1.56-1.561,4.089,0,5.651c0.781,0.78,1.804,1.171,2.826,1.171c1.022,0,2.045-0.391,2.824-1.169
			C171.54,443.375,172.968,439.995,172.547,436.576z"/>
	</g>
</g>
<g>
	<g>
		<path d="M106.127,367.5c-4.496-4.536-12.419-4.543-16.946-0.016c-4.676,4.684-4.668,12.294,0,16.962
			c2.264,2.264,5.276,3.513,8.477,3.513c3.201,0,6.213-1.249,8.477-3.52c2.272-2.264,3.513-5.277,3.513-8.478
			C109.64,372.753,108.383,369.748,106.127,367.5z M100.483,378.787c-1.522,1.514-4.152,1.514-5.651,0.008
			c-1.561-1.561-1.554-4.098,0-5.659c0.757-0.758,1.756-1.171,2.818-1.171c1.062,0,2.061,0.413,2.825,1.187
			c0.758,0.756,1.179,1.756,1.179,2.817C101.654,377.03,101.24,378.029,100.483,378.787z"/>
	</g>
</g>
<g>
</g>
<g>
</g>
<g>
</g>
<g>
</g>
<g>
</g>
<g>
</g>
<g>
</g>
<g>
</g>
<g>
</g>
<g>
</g>
<g>
</g>
<g>
</g>
<g>
</g>
<g>
</g>
<g>
</g>
</svg>
